<svg width="157" height="36" viewBox="0 0 157 36" fill="none" xmlns="http://www.w3.org/2000/svg">
<path d="M30.1012 18.0693C30.1012 22.4857 26.5077 26.0833 22.0872 26.0833C17.6666 26.0833 14.0731 22.4898 14.0731 18.0693C14.0731 13.6487 17.6666 10.0552 22.0872 10.0552V0.130371C12.199 0.130371 4.15234 8.177 4.15234 18.0652C4.15234 27.9534 12.199 36 22.0872 36C31.9753 36 40.0219 27.9534 40.0219 18.0652H30.1012V18.0693Z" fill="#19BBF0"/>
<path d="M38.6895 0.00407328C28.8013 -0.179268 20.608 7.72069 20.4287 17.6089L30.3495 17.7922C30.431 13.4246 34.0082 9.92485 38.3595 9.92485C38.4083 9.92485 38.4572 9.92485 38.5102 9.92485C42.9267 10.0063 46.455 13.665 46.3735 18.0815C46.292 22.498 42.6333 26.0303 38.2169 25.9448L38.0335 35.8656C38.1435 35.8656 38.2576 35.8656 38.3676 35.8656C48.105 35.8656 56.115 28.0349 56.2942 18.2608C56.4776 8.37257 48.5776 0.179265 38.6894 0L38.6895 0.00407328Z" fill="#19BBF0"/>
<path d="M103.579 24.9705C103.827 24.3677 104.174 23.8475 104.62 23.4099C105.074 22.9723 105.606 22.6338 106.217 22.3943C106.837 22.1549 107.518 22.0352 108.261 22.0352C108.748 22.0352 109.256 22.1053 109.784 22.2457C110.313 22.3861 110.767 22.576 111.147 22.8154L110.949 23.8186C110.404 23.5462 109.912 23.3521 109.475 23.2365C109.045 23.1127 108.6 23.0507 108.137 23.0507C107.402 23.0507 106.75 23.2159 106.18 23.5462C105.619 23.8682 105.181 24.3182 104.867 24.8962C104.554 25.4659 104.397 26.1306 104.397 26.8902C104.397 27.6663 104.554 28.3393 104.867 28.909C105.181 29.4787 105.619 29.9204 106.18 30.2342C106.75 30.548 107.419 30.7048 108.187 30.7048C108.641 30.7048 109.12 30.6429 109.623 30.5191C110.127 30.3952 110.618 30.2218 111.097 29.9989L111.221 30.9897C110.247 31.4769 109.215 31.7204 108.125 31.7204C107.406 31.7204 106.746 31.6048 106.143 31.3737C105.549 31.1342 105.033 30.8039 104.595 30.3828C104.157 29.9535 103.819 29.4498 103.579 28.8718C103.34 28.2856 103.22 27.6457 103.22 26.9521C103.22 26.2338 103.34 25.5732 103.579 24.9705Z" fill="#19BBF0"/>
<path d="M99.5071 22.1714H100.622V31.5842H99.5071V22.1714Z" fill="#19BBF0"/>
<path d="M88.438 22.1714H89.5155L95.2623 29.9617V22.1714H96.2903V31.5842H95.2127L89.466 23.7939V31.5842H88.438V22.1714Z" fill="#19BBF0"/>
<path d="M84.1057 22.1714H85.2204V31.5842H84.1057V22.1714Z" fill="#19BBF0"/>
<path d="M76.0239 22.1714H77.1386V30.6305H81.7583V31.5842H76.0239V22.1714Z" fill="#19BBF0"/>
<path d="M65.6619 24.9705C65.9096 24.3677 66.2564 23.8475 66.7023 23.4099C67.1564 22.9723 67.689 22.6338 68.3 22.3943C68.9192 22.1549 69.6004 22.0352 70.3435 22.0352C70.8307 22.0352 71.3385 22.1053 71.8669 22.2457C72.3954 22.3861 72.8495 22.576 73.2293 22.8154L73.0311 23.8186C72.4862 23.5462 71.9949 23.3521 71.5573 23.2365C71.1279 23.1127 70.6821 23.0507 70.2197 23.0507C69.4848 23.0507 68.8325 23.2159 68.2628 23.5462C67.7013 23.8682 67.2637 24.3182 66.95 24.8962C66.6362 25.4659 66.4793 26.1306 66.4793 26.8902C66.4793 27.6663 66.6362 28.3393 66.95 28.909C67.2637 29.4787 67.7013 29.9204 68.2628 30.2342C68.8325 30.548 69.5013 30.7048 70.2692 30.7048C70.7234 30.7048 71.2023 30.6429 71.7059 30.5191C72.2096 30.3952 72.7009 30.2218 73.1798 29.9989L73.3036 30.9897C72.3293 31.4769 71.2972 31.7204 70.2073 31.7204C69.489 31.7204 68.8284 31.6048 68.2257 31.3737C67.6312 31.1342 67.1151 30.8039 66.6775 30.3828C66.2399 29.9535 65.9014 29.4498 65.6619 28.8718C65.4225 28.2856 65.3027 27.6457 65.3027 26.9521C65.3027 26.2338 65.4225 25.5732 65.6619 24.9705Z" fill="#19BBF0"/>
<path d="M151.374 4.47803H152.6L156.427 13.8908H155.226L154.111 11.0422H149.801L148.687 13.8908H147.547L151.374 4.47803ZM153.74 10.1133L151.956 5.55555L150.173 10.1133H153.74Z" fill="#19BBF0"/>
<path d="M135.565 4.47803H136.68L140.296 11.228L143.863 4.47803H144.978L145.436 13.8908H144.359L144.012 6.15004L140.767 12.2931H139.776L136.519 6.24912L136.184 13.8908H135.107L135.565 4.47803Z" fill="#19BBF0"/>
<path d="M127.953 4.47803H129.179L133.006 13.8908H131.805L130.69 11.0422H126.38L125.266 13.8908H124.126L127.953 4.47803ZM130.319 10.1133L128.535 5.55555L126.752 10.1133H130.319Z" fill="#19BBF0"/>
<path d="M120.759 9.84085V13.8908H119.644V9.82846L116.102 4.47803H117.353L120.239 8.97388L123.137 4.47803H124.313L120.759 9.84085Z" fill="#19BBF0"/>
<path d="M106.134 4.47803H107.248V9.92755C107.248 10.9597 107.488 11.7441 107.967 12.2807C108.454 12.8092 109.164 13.0734 110.097 13.0734C111.03 13.0734 111.736 12.8092 112.215 12.2807C112.702 11.7441 112.945 10.9597 112.945 9.92755V4.47803H114.06V10.0266C114.06 11.3064 113.705 12.3055 112.995 13.0239C112.293 13.734 111.315 14.089 110.06 14.089C108.821 14.089 107.855 13.734 107.162 13.0239C106.476 12.3055 106.134 11.3064 106.134 10.0266V4.47803Z" fill="#19BBF0"/>
<path d="M102.814 12.8132C102.542 13.2178 102.158 13.5316 101.663 13.7545C101.167 13.9775 100.577 14.0889 99.8915 14.0889C99.5365 14.0889 99.1732 14.0559 98.8016 13.9898C98.4301 13.9238 98.075 13.8371 97.7365 13.7297C97.4062 13.6142 97.1255 13.482 96.8943 13.3334L97.0305 12.3054C97.4269 12.5449 97.881 12.7389 98.3929 12.8875C98.9048 13.0362 99.3879 13.1105 99.842 13.1105C100.536 13.1105 101.085 12.9619 101.489 12.6646C101.894 12.3674 102.096 11.9628 102.096 11.4509C102.096 11.1536 102.03 10.9018 101.898 10.6954C101.774 10.4889 101.551 10.299 101.229 10.1256C100.907 9.95224 100.457 9.77059 99.8791 9.58068C99.1773 9.34949 98.62 9.11004 98.2071 8.86234C97.7943 8.61463 97.5012 8.32977 97.3278 8.00775C97.1544 7.68573 97.0677 7.29766 97.0677 6.84354C97.0677 6.32335 97.1957 5.87336 97.4516 5.49354C97.7158 5.10547 98.0791 4.80822 98.5415 4.6018C99.0039 4.38712 99.5447 4.27979 100.164 4.27979C100.618 4.27979 101.081 4.34171 101.551 4.46556C102.022 4.58116 102.443 4.7463 102.814 4.96097L102.629 5.93941C102.265 5.72473 101.865 5.5596 101.427 5.444C100.99 5.32015 100.569 5.25822 100.164 5.25822C99.5365 5.25822 99.0452 5.39446 98.6902 5.66694C98.3351 5.93115 98.1576 6.29858 98.1576 6.76922C98.1576 7.04996 98.2154 7.28941 98.331 7.48757C98.4466 7.67748 98.6489 7.855 98.9379 8.02014C99.2351 8.17702 99.6438 8.34628 100.164 8.52793C100.924 8.7839 101.526 9.04399 101.972 9.3082C102.418 9.57242 102.736 9.86967 102.926 10.1999C103.124 10.5302 103.223 10.9183 103.223 11.3642C103.223 11.9174 103.087 12.4004 102.814 12.8132Z" fill="#19BBF0"/>
<path d="M90.5229 5.43169H87.3027V4.47803H94.8577V5.43169H91.6376V13.8908H90.5229V5.43169Z" fill="#19BBF0"/>
<path d="M82.0653 4.47803H83.2915L87.1185 13.8908H85.9171L84.8025 11.0422H80.4924L79.3777 13.8908H78.2383L82.0653 4.47803ZM84.4309 10.1133L82.6474 5.55555L80.864 10.1133H84.4309Z" fill="#19BBF0"/>
<path d="M66.2564 4.47803H67.371L70.9875 11.228L74.5545 4.47803H75.6692L76.1274 13.8908H75.0499L74.7031 6.15004L71.4582 12.2931H70.4673L67.21 6.24912L66.8756 13.8908H65.7981L66.2564 4.47803Z" fill="#19BBF0"/>
</svg>
